<svg xmlns="http://www.w3.org/2000/svg" viewBox="0 0 34.19 8.68"><defs><style>.cls-1{fill:#f7941d;}</style></defs><g id="Layer_2" data-name="Layer 2"><g id="Layer_1_1:1_" data-name="Layer 1 (1:1)"><path class="cls-1" d="M1.52,5.52V8.26a.38.38,0,0,1-.42.42H.42A.38.38,0,0,1,0,8.26V.41A.38.38,0,0,1,.42,0H2C3.59,0,4.28.62,4.28,1.91V3.6c0,1.29-.69,1.92-2.25,1.92ZM2,4.34a.65.65,0,0,0,.73-.74V1.91A.65.65,0,0,0,2,1.18H1.52V4.34Z"/><path class="cls-1" d="M8.93,7.51h1.81a.38.38,0,0,1,.42.41v.34a.38.38,0,0,1-.42.42H7.82a.38.38,0,0,1-.42-.42V.41A.38.38,0,0,1,7.82,0h.69a.38.38,0,0,1,.42.41Z"/><path class="cls-1" d="M17.57,8.31,17.39,7H15.86L15.7,8.31a.39.39,0,0,1-.42.37h-.65a.39.39,0,0,1-.4-.5L15.42.4a.39.39,0,0,1,.43-.4h1.56c.24,0,.38.11.42.4L19,8.18a.38.38,0,0,1-.4.5H18A.37.37,0,0,1,17.57,8.31ZM16,5.79h1.22L17,4,16.68,1h-.11L16.26,4Z"/><path class="cls-1" d="M25.09.41A.38.38,0,0,1,25.51,0h.6a.37.37,0,0,1,.41.41V8.26a.38.38,0,0,1-.41.42h-.76a.42.42,0,0,1-.42-.31l-1-3.22-.53-2H23.3l.16,2v3a.38.38,0,0,1-.41.42h-.6A.38.38,0,0,1,22,8.26V.41A.38.38,0,0,1,22.45,0h.75a.39.39,0,0,1,.41.31l1,3.23.53,2,.11,0-.16-2Z"/><path class="cls-1" d="M32.55,1.18V8.26a.38.38,0,0,1-.42.42h-.68A.38.38,0,0,1,31,8.26V1.18H29.82A.39.39,0,0,1,29.4.76V.41A.38.38,0,0,1,29.82,0h4a.38.38,0,0,1,.42.41V.76a.39.39,0,0,1-.42.42Z"/></g></g></svg>