<svg xmlns="http://www.w3.org/2000/svg" viewBox="0 0 235.73 49.83"><defs><style>.cls-1{fill:#f7941d;}.cls-2{fill:#ef4136;}</style></defs><g id="Layer_2" data-name="Layer 2"><g id="Layer_1_1:1_" data-name="Layer 1 (1:1)"><rect class="cls-1" width="235.73" height="49.83" rx="4.37"/><path class="cls-2" d="M48.28,21.87l2.51,2.28c1.41,1.26,1.72,2.31,1.72,4.49s-1.27,3.47-4.1,3.47-4.1-1.14-4.1-3.47V26.87a.7.7,0,0,1,.76-.79h1.3a.71.71,0,0,1,.77.79v1.77a1.28,1.28,0,0,0,2.55,0,3,3,0,0,0-1.14-2.74L46,23.62c-1.41-1.26-1.7-2.31-1.7-4.49s1.28-3.47,4.1-3.47,4.1,1.14,4.1,3.47V20.9a.68.68,0,0,1-.76.76h-1.3a.68.68,0,0,1-.76-.76V19.13a1.28,1.28,0,1,0-2.55,0A3,3,0,0,0,48.28,21.87Z"/><path class="cls-2" d="M55.43,14.85a1.45,1.45,0,0,1,1.5,1.5,1.43,1.43,0,0,1-1.5,1.5,1.42,1.42,0,0,1-1.5-1.5A1.43,1.43,0,0,1,55.43,14.85ZM56.7,31.21a.72.72,0,0,1-.78.79h-1a.72.72,0,0,1-.78-.79V20.07a.7.7,0,0,1,.78-.76h1a.7.7,0,0,1,.78.76Z"/><path class="cls-2" d="M65.35,33.52c0,2-1.09,3-3.49,3H60.45a.69.69,0,0,1-.77-.76v-.43a.7.7,0,0,1,.77-.78h1.41c.69,0,1-.36,1-1.06V31.12a3.43,3.43,0,0,1-2.31,1c-1.1,0-2-.7-2-2.35V21.55c0-1.66.91-2.35,2-2.35a3.43,3.43,0,0,1,2.31,1v-.12a.69.69,0,0,1,.76-.76h1a.68.68,0,0,1,.76.76ZM61.05,29c0,.72.25,1,.85,1s.92-.29.92-1V22.36c0-.72-.31-1-.92-1s-.85.29-.85,1Z"/><path class="cls-2" d="M74,31.24a.7.7,0,0,1-.77.76h-1a.69.69,0,0,1-.76-.76V22.31c0-.69-.27-1-.87-1s-.9.31-.9,1v8.88a.71.71,0,0,1-.78.76h-1a.71.71,0,0,1-.78-.76V20.07a.7.7,0,0,1,.78-.76h1a.7.7,0,0,1,.78.76v.12a3.35,3.35,0,0,1,2.29-1c1.1,0,2,.69,2,2.35Z"/><path class="cls-2" d="M80.68,16.53a.7.7,0,0,1,.78-.76h1.28a.7.7,0,0,1,.79.76V28.64a1.11,1.11,0,0,0,1.25,1.27,1.13,1.13,0,0,0,1.28-1.27V16.53a.7.7,0,0,1,.78-.76h1.28a.7.7,0,0,1,.79.76V28.64c0,2.33-1.3,3.47-4.13,3.47s-4.1-1.14-4.1-3.47Z"/><path class="cls-2" d="M90.7,20.07a.7.7,0,0,1,.78-.76h1a.7.7,0,0,1,.78.76v.12a3.35,3.35,0,0,1,2.29-1c1.1,0,2,.69,2,2.35v8.21c0,1.65-.92,2.35-2,2.35a3.35,3.35,0,0,1-2.29-1v4.6a.7.7,0,0,1-.78.76h-1a.7.7,0,0,1-.78-.76ZM95,22.31c0-.69-.27-1-.87-1s-.9.31-.9,1V29c0,.72.29,1,.9,1s.87-.27.87-1Z"/><path class="cls-2" d="M110.46,15.77a.7.7,0,0,1,.79.76v.65a.73.73,0,0,1-.79.79h-3.38v4.82h2.53a.7.7,0,0,1,.79.76v.65a.72.72,0,0,1-.79.78h-2.53v6.23a.72.72,0,0,1-.79.79H105a.72.72,0,0,1-.79-.79V16.53a.7.7,0,0,1,.79-.76Z"/><path class="cls-2" d="M118.67,22.09v7.13c0,2-1.1,2.89-3.43,2.89s-3.43-.94-3.43-2.89V22.09c0-1.95,1.09-2.89,3.43-2.89S118.67,20.14,118.67,22.09Zm-4.31.07v7c0,.7.29,1,.88,1s.89-.29.89-1v-7c0-.72-.29-1-.89-1S114.36,21.44,114.36,22.16Z"/><path class="cls-2" d="M127.31,24.4a.69.69,0,0,1-.76.76h-1a.69.69,0,0,1-.76-.76V22.31c0-.69-.27-1-.87-1s-.9.31-.9,1v8.88a.71.71,0,0,1-.78.76h-1a.71.71,0,0,1-.78-.76V20.07a.7.7,0,0,1,.78-.76h1a.7.7,0,0,1,.78.76v.12a3.35,3.35,0,0,1,2.29-1c1.1,0,2,.69,2,2.35Z"/><path class="cls-2" d="M133.54,16.53a.7.7,0,0,1,.79-.76h1.27a.7.7,0,0,1,.79.76V28.64a1.11,1.11,0,0,0,1.25,1.27,1.13,1.13,0,0,0,1.28-1.27V16.53a.7.7,0,0,1,.79-.76H141a.7.7,0,0,1,.79.76V28.64c0,2.33-1.3,3.47-4.13,3.47s-4.1-1.14-4.1-3.47Z"/><path class="cls-2" d="M143.56,20.07a.7.7,0,0,1,.78-.76h1a.7.7,0,0,1,.78.76v.12a3.37,3.37,0,0,1,2.29-1c1.1,0,2,.69,2,2.35v8.21c0,1.65-.92,2.35-2,2.35a3.37,3.37,0,0,1-2.29-1v4.6a.7.7,0,0,1-.78.76h-1a.7.7,0,0,1-.78-.76Zm4.33,2.24c0-.69-.27-1-.88-1s-.9.31-.9,1V29c0,.72.3,1,.9,1s.88-.27.88-1Z"/><path class="cls-2" d="M159.07,31.24a.69.69,0,0,1-.76.76h-1a.69.69,0,0,1-.76-.76v-.12a3.45,3.45,0,0,1-2.31,1c-1.1,0-2-.7-2-2.35V21.55c0-1.66.92-2.35,2-2.35a3.45,3.45,0,0,1,2.31,1V14.83a.68.68,0,0,1,.76-.76h1a.68.68,0,0,1,.76.76ZM154.76,29c0,.72.25,1,.86,1s.92-.29.92-1V22.36c0-.72-.32-1-.92-1s-.86.29-.86,1Z"/><path class="cls-2" d="M165.18,24.58V22.16c0-.72-.29-1-.89-1s-.88.27-.88,1v.51a.7.7,0,0,1-.78.77h-1a.7.7,0,0,1-.78-.77v-.58c0-1.95,1.1-2.89,3.43-2.89s3.43.94,3.43,2.89v9.15A.69.69,0,0,1,167,32h-1a.7.7,0,0,1-.77-.76v-.12a3.43,3.43,0,0,1-2.3,1c-1.1,0-2-.7-2-2.35V27.47c0-1.95,1.1-2.89,3.43-2.89Zm-.89,1.9c-.58,0-.88.3-.88,1V29c0,.72.25,1,.86,1s.91-.29.91-1V26.48Z"/><path class="cls-2" d="M170.18,19.31V16.53a.7.7,0,0,1,.79-.76h1a.71.71,0,0,1,.79.76v2.78h1.12a.7.7,0,0,1,.78.76v.43a.72.72,0,0,1-.78.78h-1.12V29c0,.72.24,1.08,1,1.08h.6a.7.7,0,0,1,.79.76v.42a.72.72,0,0,1-.79.79h-.6c-2.42,0-3.52-1-3.52-3V21.28h-.67a.72.72,0,0,1-.79-.78v-.43a.7.7,0,0,1,.79-.76Z"/><path class="cls-2" d="M183,25.7a.83.83,0,0,1-.9.9h-3.41v2.55c0,.7.29,1,.88,1s.89-.29.89-1v-.47a.69.69,0,0,1,.76-.76h1a.69.69,0,0,1,.77.76v.54c0,2-1.1,2.89-3.43,2.89s-3.43-.94-3.43-2.91V22.09c0-1.95,1.1-2.89,3.43-2.89s3.43.94,3.43,2.89Zm-4.31-1h1.77V22.16c0-.72-.29-1-.89-1s-.88.27-.88,1Z"/><path class="cls-2" d="M188,32.11c-2.35,0-3.43-.92-3.43-2.89v-1a.7.7,0,0,1,.76-.79h1a.7.7,0,0,1,.76.79v1c0,.7.29,1,.9,1s.87-.29.87-1c0-.92-.13-1.12-.92-1.84l-1.86-1.7a3.88,3.88,0,0,1-1.52-3.52c0-1.95,1.08-2.89,3.43-2.89s3.43.94,3.43,2.89v1a.7.7,0,0,1-.79.76h-1a.7.7,0,0,1-.79-.76v-1c0-.72-.29-1-.87-1s-.9.27-.9,1c0,.92.14,1.1.92,1.84l1.86,1.7a3.88,3.88,0,0,1,1.55,3.52C191.45,31.17,190.35,32.11,188,32.11Z"/></g></g></svg>