<svg xmlns="http://www.w3.org/2000/svg" viewBox="0 0 33.71 8.8"><defs><style>.cls-1{fill:#f7941d;}</style></defs><g id="Layer_2" data-name="Layer 2"><g id="Layer_1_1:1_" data-name="Layer 1 (1:1)"><path class="cls-1" d="M3.33.06a.37.37,0,0,1,.42.41V.82a.38.38,0,0,1-.42.42H1.52V3.81H2.88a.38.38,0,0,1,.42.41v.35A.39.39,0,0,1,2.88,5H1.52V8.32a.38.38,0,0,1-.42.42H.42A.38.38,0,0,1,0,8.32V.47A.38.38,0,0,1,.42.06Z"/><path class="cls-1" d="M11.1,1.86V6.94c0,1.25-.7,1.86-2.21,1.86S6.7,8.19,6.7,6.94V1.86C6.7.61,7.38,0,8.89,0S11.1.61,11.1,1.86Zm-2.88,0V6.94a.6.6,0,0,0,.67.69.62.62,0,0,0,.69-.69V1.86a.61.61,0,0,0-.69-.68A.6.6,0,0,0,8.22,1.86Z"/><path class="cls-1" d="M17.88,5l1.19,3.15a.41.41,0,0,1-.38.58H18a.39.39,0,0,1-.41-.27L16.38,5.25H16V8.32a.38.38,0,0,1-.42.42h-.68a.38.38,0,0,1-.42-.42V.47a.38.38,0,0,1,.42-.41h1.7c1.55,0,2.25.62,2.25,1.91V3.33A1.57,1.57,0,0,1,17.88,5Zm-1.3-.93a.66.66,0,0,0,.73-.75V2a.65.65,0,0,0-.73-.73H16V4.08Z"/><path class="cls-1" d="M26.17,4.2a.38.38,0,0,1,.42.41V6.94c0,1.25-.7,1.86-2.21,1.86s-2.19-.61-2.19-1.86V1.86C22.19.61,22.87,0,24.38,0s2.21.61,2.21,1.86v.79a.39.39,0,0,1-.42.42h-.68a.38.38,0,0,1-.42-.42V1.86a.61.61,0,0,0-.69-.68.6.6,0,0,0-.67.68V6.94a.6.6,0,0,0,.67.69.62.62,0,0,0,.69-.69V5.37h-.29A.37.37,0,0,1,24.37,5V4.61a.37.37,0,0,1,.41-.41Z"/><path class="cls-1" d="M33.29.06a.38.38,0,0,1,.42.41V.82a.39.39,0,0,1-.42.42H31.47V3.81h1.36a.38.38,0,0,1,.42.41v.35a.39.39,0,0,1-.42.42H31.47V7.57h1.82a.38.38,0,0,1,.42.41v.34a.38.38,0,0,1-.42.42H30.37A.38.38,0,0,1,30,8.32V.47a.38.38,0,0,1,.42-.41Z"/></g></g></svg>