<svg xmlns="http://www.w3.org/2000/svg" viewBox="0 0 96.32 84"><defs><style>.cls-1{fill:#f15a29;}.cls-2{fill:#f7941d;}</style></defs><g id="Layer_2" data-name="Layer 2"><g id="Layer_1_1:1_" data-name="Layer 1 (1:1)"><path class="cls-1" d="M48.16,2l.53.26L93.8,24.82l.52.26-.52.26L83.05,30.72,93.8,36.1l.52.26-.52.26L83.05,42,93.8,47.38l.52.26-.52.26L83.05,53.28,93.8,58.65l.52.27-.52.26L48.69,81.73l-.53.27-.52-.27L2.52,59.18,2,58.92l.52-.27,10.76-5.37L2.52,47.9,2,47.64l.52-.27L13.28,42,2.52,36.62,2,36.36l.52-.26,10.76-5.38L2.52,25.34,2,25.08l.52-.26L47.64,2.26,48.16,2m0-2a2,2,0,0,0-.89.21l-.53.26L1.63,23l-.52.26a2,2,0,0,0,0,3.58l.52.26,7.18,3.59L1.63,34.31l-.52.26a2,2,0,0,0,0,3.58l.52.26L8.81,42,1.63,45.59l-.52.26a2,2,0,0,0,0,3.58l.52.26,7.18,3.59L1.63,56.86l-.52.27a2,2,0,0,0,0,3.57l.52.27L46.74,83.52l.53.27a2,2,0,0,0,1.79,0l.52-.27L94.69,61l.53-.27a2,2,0,0,0,0-3.57l-.53-.27-7.17-3.58,7.17-3.59.53-.26a2,2,0,0,0,0-3.58l-.53-.26L87.52,42l7.17-3.59.53-.26a2,2,0,0,0,0-3.58l-.53-.26-7.17-3.59,7.17-3.59.53-.26a2,2,0,0,0,0-3.58L94.69,23,49.58.47,49.06.21a2,2,0,0,0-.9-.21Z"/><path class="cls-2" d="M94.32,36.36l-.52-.26L83.05,30.72,93.8,25.34l.52-.26-.52-.26L48.69,2.26,48.16,2l-.52.26L2.52,24.82,2,25.08l.52.26,10.76,5.38L2.52,36.1,2,36.36l.52.26L13.28,42,2.52,47.37,2,47.64l.52.26,10.76,5.38L2.52,58.65,2,58.92l.52.26L47.64,81.73l.52.27.53-.27L93.8,59.18l.52-.26-.52-.27L83.05,53.28,93.8,47.9l.52-.26-.52-.26L83.05,42,93.8,36.62ZM92.23,25.08,82,30.2,71.77,25.08,82,20ZM37.93,64.55l10.23-5.11,10.23,5.11L48.16,69.67ZM58.39,19.44,48.16,24.56,37.93,19.44l10.23-5.11Zm-10.23,39L37.93,53.28l10.23-5.12,10.23,5.12ZM15.38,53.28l10.23-5.12,10.22,5.12L25.61,58.39ZM26.65,36.36l10.23-5.12,10.23,5.12-8,4-2.21,1.1-6.82-3.41Zm0,11.28,10.23-5.12,10.23,5.12L36.88,52.75ZM58.39,42,48.16,47.11,37.93,42l10.23-5.12Zm0-11.28L48.16,35.83,37.93,30.72l10.23-5.11ZM26.65,58.92,36.88,53.8l2.21,1.1,8,4L36.88,64Zm32.79-6.17L49.21,47.64l10.23-5.12,10.23,5.12Zm8.92-6.82L60.49,42l10.23-5.12L81,42,70.72,47.11Zm-8.92-4.46L49.21,36.36l10.23-5.12,10.23,5.12ZM49.21,25.08,59.44,20l10.23,5.11L59.44,30.2Zm11.28,5.64,10.23-5.11L81,30.72,70.72,35.83ZM47.11,25.08,36.88,30.2,26.65,25.08,36.88,20ZM35.83,30.72,25.61,35.83,15.38,30.72l10.23-5.11Zm0,11.28L25.61,47.11,15.38,42l10.23-5.12ZM49.21,58.92l8-4,2.21-1.1,10.23,5.12L59.44,64Zm11.28-5.64,10.23-5.12L81,53.28,70.72,58.39ZM81,19.44,70.72,24.56,60.49,19.44l10.23-5.11ZM69.67,13.8,59.44,18.92l-2.21-1.11-8-4L59.44,8.69ZM48.16,3.05,58.39,8.16,48.16,13.28,37.93,8.16ZM36.88,8.69,47.11,13.8,36.88,18.92,26.65,13.8ZM25.61,14.33l10.22,5.11L25.61,24.56,15.38,19.44ZM14.33,30.2,4.1,25.08,14.33,20l10.23,5.11L16,29.35Zm0,11.27L4.1,36.36l10.23-5.12,10.23,5.12L16,40.63ZM4.1,47.64l10.23-5.12,10.23,5.12L14.33,52.75Zm0,11.28L14.33,53.8l10.23,5.12L14.33,64Zm11.28,5.63,10.23-5.11,10.23,5.11L25.61,69.67Zm11.27,5.64,10.23-5.11,2.21,1.1,8,4L36.88,75.31ZM48.16,81,37.93,75.83l10.23-5.11,10.23,5.11Zm11.28-5.64L49.21,70.19l10.23-5.11,10.23,5.11Zm11.28-5.64L60.49,64.55l10.23-5.11L81,64.55ZM82,53.8l10.23,5.12L82,64,71.77,58.92l8.54-4.27Zm10.23-6.16L82,52.75,71.77,47.64,82,42.52ZM82,41.47,71.77,36.36,82,31.24l10.23,5.12Z"/></g></g></svg>