<svg xmlns="http://www.w3.org/2000/svg" viewBox="0 0 113.93 22.42"><defs><style>.cls-1{fill:#f7941d;}</style></defs><g id="Layer_2" data-name="Layer 2"><g id="Layer_1_1:1_" data-name="Layer 1 (1:1)"><path class="cls-1" d="M.78,17.93A.72.72,0,0,1,0,17.15V2.47A.7.7,0,0,1,.78,1.7h3C6.7,1.7,8,2.87,8,5.27V6.43c0,1.68-.62,2.78-2,3.25v.21a3,3,0,0,1,2,3.25v1.21c0,2.42-1.3,3.58-4.21,3.58Zm3-9.26A1.2,1.2,0,0,0,5.16,7.31v-2A1.21,1.21,0,0,0,3.79,3.9H2.85V8.67Zm0,7.07a1.22,1.22,0,0,0,1.37-1.39V12.26a1.22,1.22,0,0,0-1.37-1.39H2.85v4.87Z"/><path class="cls-1" d="M9.7,6a.7.7,0,0,1,.79-.76h1a.7.7,0,0,1,.79.76v8.9c0,.71.24,1,.85,1s.92-.29.92-1V6a.68.68,0,0,1,.76-.76h1a.68.68,0,0,1,.76.76V17.17a.69.69,0,0,1-.76.76h-1a.69.69,0,0,1-.76-.76v-.11a3.44,3.44,0,0,1-2.31,1c-1.1,0-2-.69-2-2.35Z"/><path class="cls-1" d="M20.08,5.92l.67,5.85.34,4.14h.18l.33-4.14.68-5.85a.68.68,0,0,1,.78-.67H24a.71.71,0,0,1,.76.94L22.41,21.74a.72.72,0,0,1-.78.68h-.95a.73.73,0,0,1-.76-1l.56-3.54h-.42a.73.73,0,0,1-.79-.72l-1.68-11c-.11-.7.31-.94.74-.94h.94A.72.72,0,0,1,20.08,5.92Z"/><path class="cls-1" d="M33.52,12v5.14a.72.72,0,0,1-.78.78H31.46a.72.72,0,0,1-.78-.78V2.47a.7.7,0,0,1,.78-.77h3c2.92,0,4.22,1.17,4.22,3.57V8.43c0,2.42-1.3,3.58-4.22,3.58Zm.94-2.19a1.22,1.22,0,0,0,1.37-1.39V5.27A1.21,1.21,0,0,0,34.46,3.9h-.94V9.82Z"/><path class="cls-1" d="M42.58,17.15a.72.72,0,0,1-.79.78h-1a.72.72,0,0,1-.79-.78V.76A.7.7,0,0,1,40.81,0h1a.7.7,0,0,1,.79.76Z"/><path class="cls-1" d="M48.69,10.51V8.09c0-.72-.29-1-.89-1s-.88.26-.88,1v.52a.7.7,0,0,1-.78.76h-1a.7.7,0,0,1-.78-.76V8c0-1.95,1.1-2.89,3.43-2.89s3.43.94,3.43,2.89v9.15a.7.7,0,0,1-.77.76h-1a.7.7,0,0,1-.77-.76v-.11a3.42,3.42,0,0,1-2.3,1c-1.1,0-2-.69-2-2.35V13.4c0-2,1.1-2.89,3.43-2.89Zm-.89,1.91c-.59,0-.88.29-.88,1v1.51c0,.71.25,1,.86,1s.91-.29.91-1V12.42Z"/><path class="cls-1" d="M59.88,17.17a.7.7,0,0,1-.77.76h-1a.7.7,0,0,1-.77-.76V8.25c0-.7-.26-1-.87-1s-.9.32-.9,1v8.88a.71.71,0,0,1-.78.76h-1a.71.71,0,0,1-.78-.76V6a.7.7,0,0,1,.78-.76h1a.7.7,0,0,1,.78.76v.11a3.37,3.37,0,0,1,2.29-1c1.1,0,2,.7,2,2.36Z"/><path class="cls-1" d="M62.34,5.25V2.47a.7.7,0,0,1,.78-.77h1a.7.7,0,0,1,.78.77V5.25H66A.7.7,0,0,1,66.8,6v.42a.72.72,0,0,1-.78.79H64.89v7.66c0,.72.25,1.08,1,1.08h.6a.7.7,0,0,1,.79.76v.43a.72.72,0,0,1-.79.78h-.6c-2.42,0-3.52-1-3.52-3V7.22h-.67a.72.72,0,0,1-.79-.79V6a.7.7,0,0,1,.79-.76Z"/><path class="cls-1" d="M71.89,10.47a.7.7,0,0,1,.76.78v.65a.68.68,0,0,1-.76.76H68.14a.7.7,0,0,1-.78-.76v-.65a.72.72,0,0,1,.78-.78Z"/><path class="cls-1" d="M80.22,1.7a.71.71,0,0,1,.79.77v.65a.72.72,0,0,1-.79.78H76.84V8.72h2.53a.71.71,0,0,1,.79.76v.65a.73.73,0,0,1-.79.79H76.84v6.23a.72.72,0,0,1-.79.78H74.78a.72.72,0,0,1-.79-.78V2.47a.71.71,0,0,1,.79-.77Z"/><path class="cls-1" d="M88.43,8v7.13c0,2-1.1,2.89-3.43,2.89s-3.43-.94-3.43-2.89V8c0-1.95,1.1-2.89,3.43-2.89S88.43,6.07,88.43,8Zm-4.31.07v7c0,.69.29,1,.88,1s.89-.29.89-1v-7c0-.72-.29-1-.89-1S84.12,7.37,84.12,8.09Z"/><path class="cls-1" d="M97.08,10.33a.7.7,0,0,1-.77.77h-1a.7.7,0,0,1-.76-.77V8.25c0-.7-.27-1-.87-1s-.9.32-.9,1v8.88a.71.71,0,0,1-.78.76H91a.71.71,0,0,1-.78-.76V6A.7.7,0,0,1,91,5.25h1a.7.7,0,0,1,.78.76v.11a3.35,3.35,0,0,1,2.29-1c1.1,0,2,.7,2,2.36Z"/><path class="cls-1" d="M105.28,19.46c0,2-1.1,3-3.5,3h-1.41a.69.69,0,0,1-.76-.77v-.42a.7.7,0,0,1,.76-.79h1.41c.7,0,1-.36,1-1.05V17.06a3.42,3.42,0,0,1-2.3,1c-1.1,0-2-.69-2-2.35V7.49c0-1.66.92-2.36,2-2.36a3.43,3.43,0,0,1,2.3,1V6a.68.68,0,0,1,.77-.76h1a.68.68,0,0,1,.77.76ZM101,14.91c0,.71.25,1,.86,1s.91-.29.91-1V8.29c0-.71-.31-1-.91-1s-.86.29-.86,1Z"/><path class="cls-1" d="M113.93,11.63a.83.83,0,0,1-.9.9h-3.41v2.56c0,.69.29,1,.88,1s.89-.29.89-1v-.48a.69.69,0,0,1,.77-.76h1a.69.69,0,0,1,.77.76v.54c0,2-1.1,2.89-3.43,2.89s-3.43-.94-3.43-2.91V8c0-1.95,1.1-2.89,3.43-2.89s3.43.94,3.43,2.89Zm-4.31-1h1.77V8.09c0-.72-.29-1-.89-1s-.88.26-.88,1Z"/></g></g></svg>