<svg xmlns="http://www.w3.org/2000/svg" viewBox="0 0 157.93 18.04"><defs><style>.cls-1{fill:#f7941d;}</style></defs><g id="Layer_2" data-name="Layer 2"><g id="Layer_1_1:1_" data-name="Layer 1 (1:1)"><path class="cls-1" d="M7.44,9.44a.7.7,0,0,1,.79.76v4.37C8.23,16.9,6.93,18,4.1,18S0,16.9,0,14.57V5.07C0,2.73,1.28,1.59,4.1,1.59S8.23,2.73,8.23,5.07V6.55a.72.72,0,0,1-.79.78H6.16a.72.72,0,0,1-.78-.78V5.07A1.14,1.14,0,0,0,4.1,3.79,1.12,1.12,0,0,0,2.85,5.07v9.5A1.12,1.12,0,0,0,4.1,15.85a1.14,1.14,0,0,0,1.28-1.28V11.63H4.84a.7.7,0,0,1-.76-.78V10.2a.69.69,0,0,1,.76-.76Z"/><path class="cls-1" d="M16.88,10.33a.7.7,0,0,1-.77.77h-1a.7.7,0,0,1-.76-.77V8.25c0-.7-.27-1-.87-1s-.9.32-.9,1v8.88a.71.71,0,0,1-.78.76h-1a.71.71,0,0,1-.78-.76V6a.7.7,0,0,1,.78-.76h1a.7.7,0,0,1,.78.76v.11a3.35,3.35,0,0,1,2.29-1c1.1,0,2,.7,2,2.36Z"/><path class="cls-1" d="M25.08,8v7.13c0,2-1.1,2.89-3.43,2.89s-3.43-.94-3.43-2.89V8c0-1.95,1.1-2.89,3.43-2.89S25.08,6.07,25.08,8Zm-4.31.07v7c0,.69.3,1,.88,1s.89-.29.89-1v-7c0-.72-.29-1-.89-1S20.77,7.37,20.77,8.09Z"/><path class="cls-1" d="M33.32,5.92l.54,6.18.25,3.81h.2l.22-3.81.54-6.18a.72.72,0,0,1,.81-.67h.94c.43,0,.85.24.74.94l-1.46,11a.71.71,0,0,1-.78.72H33.46a.74.74,0,0,1-.81-.72l-.54-5.13-.18-3.79h-.2l-.18,3.79L31,17.21a.73.73,0,0,1-.8.72H28.35a.73.73,0,0,1-.79-.72l-1.45-11c-.12-.7.31-.94.74-.94h.94a.7.7,0,0,1,.8.67l.54,6.18.25,3.81h.18l.24-3.81.54-6.18a.69.69,0,0,1,.79-.67h1.41A.68.68,0,0,1,33.32,5.92Z"/><path class="cls-1" d="M42.67,10.47a.7.7,0,0,1,.76.78v.65a.68.68,0,0,1-.76.76H38.92a.7.7,0,0,1-.78-.76v-.65a.72.72,0,0,1,.78-.78Z"/><path class="cls-1" d="M49.1,10.51V8.09c0-.72-.29-1-.9-1s-.87.26-.87,1v.52a.7.7,0,0,1-.79.76h-1a.7.7,0,0,1-.79-.76V8c0-1.95,1.1-2.89,3.43-2.89s3.43.94,3.43,2.89v9.15a.69.69,0,0,1-.76.76h-1a.69.69,0,0,1-.76-.76v-.11a3.44,3.44,0,0,1-2.31,1c-1.1,0-2-.69-2-2.35V13.4c0-2,1.1-2.89,3.43-2.89Zm-.9,1.91c-.58,0-.87.29-.87,1v1.51c0,.71.24,1,.85,1s.92-.29.92-1V12.42Z"/><path class="cls-1" d="M54.09,5.25V2.47a.71.71,0,0,1,.79-.77h1a.7.7,0,0,1,.78.77V5.25h1.12a.7.7,0,0,1,.78.76v.42a.72.72,0,0,1-.78.79H56.65v7.66c0,.72.25,1.08,1,1.08h.61a.7.7,0,0,1,.78.76v.43a.72.72,0,0,1-.78.78h-.61c-2.42,0-3.52-1-3.52-3V7.22h-.67a.72.72,0,0,1-.78-.79V6a.7.7,0,0,1,.78-.76Z"/><path class="cls-1" d="M63.64,10.47a.7.7,0,0,1,.76.78v.65a.68.68,0,0,1-.76.76H59.9a.7.7,0,0,1-.79-.76v-.65a.72.72,0,0,1,.79-.78Z"/><path class="cls-1" d="M68.59,8.72h2.54V2.47a.7.7,0,0,1,.78-.77h1.28a.7.7,0,0,1,.78.77V17.15a.72.72,0,0,1-.78.78H71.91a.72.72,0,0,1-.78-.78V10.92H68.59v6.23a.72.72,0,0,1-.78.78H66.53a.72.72,0,0,1-.78-.78V2.47a.7.7,0,0,1,.78-.77h1.28a.7.7,0,0,1,.78.77Z"/><path class="cls-1" d="M82.62,8v7.13c0,2-1.1,2.89-3.43,2.89s-3.43-.94-3.43-2.89V8c0-1.95,1.1-2.89,3.43-2.89S82.62,6.07,82.62,8Zm-4.3.07v7c0,.69.29,1,.87,1s.9-.29.9-1v-7c0-.72-.29-1-.9-1S78.32,7.37,78.32,8.09Z"/><path class="cls-1" d="M91,6.14a3.87,3.87,0,0,1,2.6-1c1.08,0,2,.7,2,2.36v9.68a.71.71,0,0,1-.79.76h-1a.71.71,0,0,1-.79-.76V8.25c0-.7-.27-1-.85-1s-.92.32-.92,1v8.88a.69.69,0,0,1-.76.76h-1a.69.69,0,0,1-.76-.76V8.25c0-.7-.27-1-.88-1s-.89.32-.89,1v8.88a.71.71,0,0,1-.79.76h-1a.71.71,0,0,1-.79-.76V6a.7.7,0,0,1,.79-.76h1A.7.7,0,0,1,87,6v.11a3.33,3.33,0,0,1,2.28-1A1.87,1.87,0,0,1,91,6.14Z"/><path class="cls-1" d="M104.25,11.63a.83.83,0,0,1-.9.9H99.94v2.56c0,.69.29,1,.88,1s.89-.29.89-1v-.48a.69.69,0,0,1,.76-.76h1a.69.69,0,0,1,.77.76v.54c0,2-1.1,2.89-3.43,2.89s-3.43-.94-3.43-2.91V8c0-1.95,1.1-2.89,3.43-2.89s3.43.94,3.43,2.89Zm-4.31-1h1.77V8.09c0-.72-.29-1-.89-1s-.88.26-.88,1Z"/><path class="cls-1" d="M118.36,9.44a.7.7,0,0,1,.79.76v4.37c0,2.33-1.3,3.47-4.13,3.47s-4.1-1.14-4.1-3.47V5.07c0-2.34,1.28-3.48,4.1-3.48s4.13,1.14,4.13,3.48V6.55a.72.72,0,0,1-.79.78h-1.28a.72.72,0,0,1-.78-.78V5.07A1.14,1.14,0,0,0,115,3.79a1.12,1.12,0,0,0-1.25,1.28v9.5A1.12,1.12,0,0,0,115,15.85a1.14,1.14,0,0,0,1.28-1.28V11.63h-.54a.7.7,0,0,1-.76-.78V10.2a.69.69,0,0,1,.76-.76Z"/><path class="cls-1" d="M120.94,6a.7.7,0,0,1,.78-.76h1a.7.7,0,0,1,.78.76v8.9c0,.71.25,1,.85,1s.92-.29.92-1V6a.68.68,0,0,1,.77-.76h1a.68.68,0,0,1,.77.76V17.17a.7.7,0,0,1-.77.76h-1a.7.7,0,0,1-.77-.76v-.11a3.42,3.42,0,0,1-2.3,1c-1.1,0-2-.69-2-2.35Z"/><path class="cls-1" d="M130.86.78a1.45,1.45,0,0,1,1.51,1.51,1.51,1.51,0,0,1-3,0A1.44,1.44,0,0,1,130.86.78Zm1.28,16.37a.72.72,0,0,1-.78.78h-1a.72.72,0,0,1-.78-.78V6a.7.7,0,0,1,.78-.76h1a.7.7,0,0,1,.78.76Z"/><path class="cls-1" d="M140.79,17.17a.69.69,0,0,1-.76.76h-1a.69.69,0,0,1-.76-.76v-.11A3.42,3.42,0,0,1,136,18c-1.1,0-2-.69-2-2.35V7.49c0-1.66.92-2.36,2-2.36a3.43,3.43,0,0,1,2.31,1V.76A.69.69,0,0,1,139,0h1a.69.69,0,0,1,.76.76Zm-4.3-2.26c0,.71.25,1,.85,1s.92-.29.92-1V8.29c0-.71-.31-1-.92-1s-.85.29-.85,1Z"/><path class="cls-1" d="M149.44,11.63a.82.82,0,0,1-.89.9h-3.41v2.56c0,.69.29,1,.87,1s.9-.29.9-1v-.48a.69.69,0,0,1,.76-.76h1a.69.69,0,0,1,.76.76v.54c0,2-1.1,2.89-3.43,2.89s-3.43-.94-3.43-2.91V8c0-1.95,1.1-2.89,3.43-2.89s3.43.94,3.43,2.89Zm-4.3-1h1.77V8.09c0-.72-.29-1-.9-1s-.87.26-.87,1Z"/><path class="cls-1" d="M154.5,18c-2.35,0-3.42-.91-3.42-2.89v-1a.7.7,0,0,1,.76-.78h1a.7.7,0,0,1,.76.78v1c0,.69.29,1,.89,1s.88-.29.88-1c0-.92-.13-1.13-.92-1.84l-1.86-1.71A3.87,3.87,0,0,1,151.08,8c0-1.95,1.07-2.89,3.42-2.89s3.43.94,3.43,2.89v1a.7.7,0,0,1-.78.76h-1a.7.7,0,0,1-.78-.76v-1c0-.72-.29-1-.88-1s-.89.26-.89,1c0,.92.13,1.1.92,1.84l1.86,1.7a3.89,3.89,0,0,1,1.54,3.52C157.93,17.1,156.84,18,154.5,18Z"/></g></g></svg>