<svg xmlns="http://www.w3.org/2000/svg" viewBox="0 0 96.38 18.04"><defs><style>.cls-1{fill:#f7941d;}</style></defs><g id="Layer_2" data-name="Layer 2"><g id="Layer_1_1:1_" data-name="Layer 1 (1:1)"><path class="cls-1" d="M2.85,8.72H5.38V2.47a.7.7,0,0,1,.78-.77H7.44a.71.71,0,0,1,.79.77V17.15a.72.72,0,0,1-.79.78H6.16a.72.72,0,0,1-.78-.78V10.92H2.85v6.23a.72.72,0,0,1-.79.78H.78A.72.72,0,0,1,0,17.15V2.47A.7.7,0,0,1,.78,1.7H2.06a.71.71,0,0,1,.79.77Z"/><path class="cls-1" d="M16.88,8v7.13c0,2-1.1,2.89-3.43,2.89S10,17.1,10,15.15V8c0-1.95,1.1-2.89,3.43-2.89S16.88,6.07,16.88,8Zm-4.31.07v7c0,.69.29,1,.88,1s.89-.29.89-1v-7c0-.72-.29-1-.89-1S12.57,7.37,12.57,8.09Z"/><path class="cls-1" d="M25.12,5.92l.54,6.18.25,3.81h.2l.22-3.81.54-6.18a.71.71,0,0,1,.81-.67h.94c.42,0,.85.24.74.94l-1.46,11a.71.71,0,0,1-.78.72H25.26a.74.74,0,0,1-.81-.72l-.54-5.13-.18-3.79h-.2l-.18,3.79-.54,5.13a.73.73,0,0,1-.8.72H20.15a.73.73,0,0,1-.79-.72l-1.46-11c-.11-.7.32-.94.74-.94h.94a.71.71,0,0,1,.81.67l.54,6.18.25,3.81h.18l.24-3.81.54-6.18a.69.69,0,0,1,.78-.67h1.42A.68.68,0,0,1,25.12,5.92Z"/><path class="cls-1" d="M38.12,17.15a.72.72,0,0,1-.79.78H36.05a.72.72,0,0,1-.78-.78V2.47a.7.7,0,0,1,.78-.77h1.28a.71.71,0,0,1,.79.77Z"/><path class="cls-1" d="M40.58,5.25V2.47a.71.71,0,0,1,.79-.77h1a.71.71,0,0,1,.79.77V5.25h1.12A.7.7,0,0,1,45,6v.42a.72.72,0,0,1-.78.79H43.14v7.66c0,.72.24,1.08,1,1.08h.61a.7.7,0,0,1,.78.76v.43a.72.72,0,0,1-.78.78H44.1c-2.42,0-3.52-1-3.52-3V7.22h-.67a.72.72,0,0,1-.78-.79V6a.7.7,0,0,1,.78-.76Z"/><path class="cls-1" d="M53.29,2.4l.76,8.47.27,4.62h.2l.2-4.62.72-8.47a.71.71,0,0,1,.78-.7h2a.71.71,0,0,1,.79.7l.71,8.47.2,4.62h.18l.3-4.62.76-8.47a.68.68,0,0,1,.76-.7H63c.54,0,.79.38.74,1L62.12,17.19a.71.71,0,0,1-.79.74H58.91a.71.71,0,0,1-.8-.74L57.5,8.92l-.18-4.1h-.18L57,8.92l-.62,8.27a.7.7,0,0,1-.79.74H53.13a.73.73,0,0,1-.81-.74L50.73,2.65c0-.57.2-.95.74-.95h1.06A.7.7,0,0,1,53.29,2.4Z"/><path class="cls-1" d="M71.28,8v7.13c0,2-1.1,2.89-3.43,2.89s-3.43-.94-3.43-2.89V8c0-1.95,1.1-2.89,3.43-2.89S71.28,6.07,71.28,8ZM67,8.09v7c0,.69.29,1,.87,1s.9-.29.9-1v-7c0-.72-.29-1-.9-1S67,7.37,67,8.09Z"/><path class="cls-1" d="M79.93,10.33a.7.7,0,0,1-.76.77h-1a.7.7,0,0,1-.76-.77V8.25c0-.7-.27-1-.87-1s-.9.32-.9,1v8.88a.71.71,0,0,1-.79.76h-1a.72.72,0,0,1-.79-.76V6a.7.7,0,0,1,.79-.76h1a.7.7,0,0,1,.79.76v.11a3.35,3.35,0,0,1,2.29-1c1.09,0,2,.7,2,2.36Z"/><path class="cls-1" d="M83.83,10.45H84l2.15-4.8a.69.69,0,0,1,.7-.4h1c.76,0,.85.71.67,1.16l-2.37,5.16,2.37,5.2c.18.44.09,1.16-.67,1.16h-1a.69.69,0,0,1-.7-.42L84,12.71h-.18v4.44a.72.72,0,0,1-.78.78h-1a.72.72,0,0,1-.78-.78V.76A.7.7,0,0,1,82.06,0h1a.7.7,0,0,1,.78.76Z"/><path class="cls-1" d="M93,18c-2.35,0-3.43-.91-3.43-2.89v-1a.7.7,0,0,1,.76-.78h1a.7.7,0,0,1,.76.78v1c0,.69.3,1,.9,1s.88-.29.88-1c0-.92-.14-1.13-.92-1.84l-1.86-1.71A3.85,3.85,0,0,1,89.52,8c0-1.95,1.08-2.89,3.43-2.89s3.43.94,3.43,2.89v1a.7.7,0,0,1-.78.76h-1a.7.7,0,0,1-.78-.76v-1c0-.72-.3-1-.88-1s-.9.26-.9,1c0,.92.14,1.1.92,1.84l1.86,1.7a3.88,3.88,0,0,1,1.55,3.52C96.38,17.1,95.28,18,93,18Z"/></g></g></svg>