<svg xmlns="http://www.w3.org/2000/svg" viewBox="0 0 235.73 49.83"><defs><style>.cls-1{fill:#f7941d;}.cls-2{fill:#ef4136;}</style></defs><g id="Layer_2" data-name="Layer 2"><g id="Layer_1_1:1_" data-name="Layer 1 (1:1)"><rect class="cls-1" width="235.73" height="49.83" rx="4.37"/><path class="cls-2" d="M79.18,29.8h3.38a.7.7,0,0,1,.79.76v.65a.72.72,0,0,1-.79.79H77.12a.72.72,0,0,1-.79-.79V16.53a.7.7,0,0,1,.79-.76h1.27a.7.7,0,0,1,.79.76Z"/><path class="cls-2" d="M91,25.7a.82.82,0,0,1-.89.9H86.73v2.55c0,.7.29,1,.87,1s.9-.29.9-1v-.47a.69.69,0,0,1,.76-.76h1a.69.69,0,0,1,.76.76v.54c0,2-1.09,2.89-3.43,2.89s-3.43-.94-3.43-2.91V22.09c0-1.95,1.1-2.89,3.43-2.89S91,20.14,91,22.09Zm-4.3-1H88.5V22.16c0-.72-.29-1-.9-1s-.87.27-.87,1Z"/><path class="cls-2" d="M97.15,24.58V22.16c0-.72-.29-1-.89-1s-.88.27-.88,1v.51a.7.7,0,0,1-.78.76h-1a.7.7,0,0,1-.78-.76v-.58c0-1.95,1.09-2.89,3.43-2.89s3.42.94,3.42,2.89v9.15a.69.69,0,0,1-.76.76h-1a.69.69,0,0,1-.76-.76v-.12a3.43,3.43,0,0,1-2.31,1c-1.1,0-2-.7-2-2.35V27.47c0-1.95,1.09-2.89,3.43-2.89Zm-.89,1.9c-.59,0-.88.29-.88,1V29c0,.72.25,1,.85,1s.92-.29.92-1V26.48Z"/><path class="cls-2" d="M108.33,24.4a.69.69,0,0,1-.76.76h-1a.69.69,0,0,1-.76-.76V22.31c0-.69-.27-1-.87-1s-.9.31-.9,1v8.88a.71.71,0,0,1-.78.76h-1a.72.72,0,0,1-.79-.76V20.07a.71.71,0,0,1,.79-.76h1a.7.7,0,0,1,.78.76v.11a3.38,3.38,0,0,1,2.29-1c1.1,0,2,.69,2,2.35Z"/><path class="cls-2" d="M116.54,31.24a.7.7,0,0,1-.77.76h-1a.69.69,0,0,1-.76-.76V22.31c0-.69-.27-1-.87-1s-.9.31-.9,1v8.88a.71.71,0,0,1-.78.76h-1a.71.71,0,0,1-.78-.76V20.07a.7.7,0,0,1,.78-.76h1a.7.7,0,0,1,.78.76v.11a3.38,3.38,0,0,1,2.29-1c1.1,0,2,.69,2,2.35Z"/><path class="cls-2" d="M127.81,28.93a.72.72,0,0,1-.79-.61l-1.32-8h-.18l.2,3.16v7.73a.72.72,0,0,1-.78.79H124a.72.72,0,0,1-.79-.79V16.53a.7.7,0,0,1,.79-.76h2.19c.5,0,.72.25.81.74l.92,4.82.54,3.83h.2l.51-3.83,1-4.82a.73.73,0,0,1,.8-.74h2.2a.71.71,0,0,1,.78.76V31.21a.72.72,0,0,1-.78.79h-.94a.72.72,0,0,1-.79-.79V23.48l.2-3.16h-.17l-1.35,8a.68.68,0,0,1-.76.61Z"/><path class="cls-2" d="M142.55,22.09v7.13c0,2-1.1,2.89-3.43,2.89s-3.43-.94-3.43-2.89V22.09c0-1.95,1.1-2.89,3.43-2.89S142.55,20.14,142.55,22.09Zm-4.3.07v7c0,.7.29,1,.87,1s.9-.29.9-1v-7c0-.72-.29-1-.9-1S138.25,21.44,138.25,22.16Z"/><path class="cls-2" d="M151.2,24.4a.69.69,0,0,1-.76.76h-1a.69.69,0,0,1-.76-.76V22.31c0-.69-.27-1-.87-1s-.9.31-.9,1v8.88a.71.71,0,0,1-.79.76h-1a.71.71,0,0,1-.79-.76V20.07a.7.7,0,0,1,.79-.76h1a.7.7,0,0,1,.79.76v.11a3.38,3.38,0,0,1,2.28-1c1.1,0,2,.69,2,2.35Z"/><path class="cls-2" d="M159.4,25.7a.82.82,0,0,1-.89.9H155.1v2.55c0,.7.29,1,.87,1s.9-.29.9-1v-.47a.69.69,0,0,1,.76-.76h1a.69.69,0,0,1,.76.76v.54c0,2-1.1,2.89-3.43,2.89s-3.43-.94-3.43-2.91V22.09c0-1.95,1.1-2.89,3.43-2.89s3.43.94,3.43,2.89Zm-4.3-1h1.77V22.16c0-.72-.29-1-.9-1s-.87.27-.87,1Z"/></g></g></svg>