<svg xmlns="http://www.w3.org/2000/svg" viewBox="0 0 75.39 18.04"><defs><style>.cls-1{fill:#f7941d;}</style></defs><g id="Layer_2" data-name="Layer 2"><g id="Layer_1_1:1_" data-name="Layer 1 (1:1)"><path class="cls-1" d="M8.23,5.07v9.5C8.23,16.9,6.93,18,4.1,18S0,16.9,0,14.57V5.07C0,2.73,1.28,1.59,4.1,1.59S8.23,2.73,8.23,5.07Zm-5.38,0v9.5A1.12,1.12,0,0,0,4.1,15.85a1.14,1.14,0,0,0,1.28-1.28V5.07A1.14,1.14,0,0,0,4.1,3.79,1.12,1.12,0,0,0,2.85,5.07Z"/><path class="cls-1" d="M10.69,5.25V2.47a.7.7,0,0,1,.78-.77h1a.7.7,0,0,1,.78.77V5.25h1.13a.7.7,0,0,1,.78.76v.42a.72.72,0,0,1-.78.79H13.24v7.66c0,.72.25,1.08,1,1.08h.6a.7.7,0,0,1,.79.76v.43a.72.72,0,0,1-.79.78h-.6c-2.42,0-3.52-1-3.52-3V7.22H10a.72.72,0,0,1-.79-.79V6A.7.7,0,0,1,10,5.25Z"/><path class="cls-1" d="M23.46,17.17a.69.69,0,0,1-.76.76h-1a.69.69,0,0,1-.76-.76V8.25c0-.7-.27-1-.87-1s-.9.32-.9,1v8.88a.71.71,0,0,1-.78.76h-1a.72.72,0,0,1-.79-.76V.76A.71.71,0,0,1,17.39,0h1a.7.7,0,0,1,.78.76V6.12a3.35,3.35,0,0,1,2.29-1c1.09,0,2,.7,2,2.36Z"/><path class="cls-1" d="M32.11,11.63a.82.82,0,0,1-.89.9H27.81v2.56c0,.69.29,1,.87,1s.9-.29.9-1v-.48a.69.69,0,0,1,.76-.76h1a.69.69,0,0,1,.76.76v.54c0,2-1.1,2.89-3.43,2.89s-3.43-.94-3.43-2.91V8c0-1.95,1.1-2.89,3.43-2.89s3.43.94,3.43,2.89Zm-4.3-1h1.77V8.09c0-.72-.29-1-.9-1s-.87.26-.87,1Z"/><path class="cls-1" d="M40.76,10.33a.7.7,0,0,1-.76.77H39a.7.7,0,0,1-.76-.77V8.25c0-.7-.27-1-.87-1s-.9.32-.9,1v8.88a.71.71,0,0,1-.79.76h-1a.72.72,0,0,1-.79-.76V6a.7.7,0,0,1,.79-.76h1a.7.7,0,0,1,.79.76v.11a3.35,3.35,0,0,1,2.29-1c1.09,0,2,.7,2,2.36Z"/><path class="cls-1" d="M49.84,15.74h3.38a.7.7,0,0,1,.79.76v.65a.72.72,0,0,1-.79.78H47.77a.72.72,0,0,1-.78-.78V2.47a.7.7,0,0,1,.78-.77h1.28a.71.71,0,0,1,.79.77Z"/><path class="cls-1" d="M56.29.78a1.45,1.45,0,0,1,1.5,1.51,1.5,1.5,0,0,1-3,0A1.44,1.44,0,0,1,56.29.78Zm1.28,16.37a.72.72,0,0,1-.79.78h-1a.72.72,0,0,1-.79-.78V6a.7.7,0,0,1,.79-.76h1a.7.7,0,0,1,.79.76Z"/><path class="cls-1" d="M66.22,17.17a.69.69,0,0,1-.76.76h-1a.69.69,0,0,1-.76-.76V8.25c0-.7-.27-1-.88-1s-.89.32-.89,1v8.88a.72.72,0,0,1-.79.76h-1a.71.71,0,0,1-.78-.76V6a.7.7,0,0,1,.78-.76h1a.7.7,0,0,1,.79.76v.11a3.33,3.33,0,0,1,2.28-1c1.1,0,2,.7,2,2.36Z"/><path class="cls-1" d="M70.56,10.45h.18l2.16-4.8a.67.67,0,0,1,.69-.4h1c.77,0,.86.71.68,1.16l-2.38,5.16,2.38,5.2c.18.44.09,1.16-.68,1.16h-1a.67.67,0,0,1-.69-.42l-2.16-4.8h-.18v4.44a.72.72,0,0,1-.78.78h-1a.72.72,0,0,1-.78-.78V.76A.7.7,0,0,1,68.79,0h1a.7.7,0,0,1,.78.76Z"/></g></g></svg>