<svg xmlns="http://www.w3.org/2000/svg" viewBox="0 0 253.77 35.24"><defs><style>.cls-1{fill:#f58031;}</style></defs><title>Asset 5</title><g id="Layer_2" data-name="Layer 2"><g id="Layer_1-2" data-name="Layer 1"><path class="cls-1" d="M6.1,22.32v11A1.54,1.54,0,0,1,4.42,35H1.68A1.54,1.54,0,0,1,0,33.32V1.87A1.5,1.5,0,0,1,1.68.24H8.11c6.24,0,9,2.5,9,7.63v6.77c0,5.18-2.78,7.68-9,7.68Zm2-4.7c2.16,0,2.93-1.2,2.93-3V7.87A2.59,2.59,0,0,0,8.11,4.94h-2V17.62Z"/><path class="cls-1" d="M30,33.51l-.72-5.38h-6.1l-.67,5.38A1.55,1.55,0,0,1,20.88,35H18.29a1.55,1.55,0,0,1-1.58-2L21.46,1.82A1.57,1.57,0,0,1,23.18.24h6.24c1,0,1.54.43,1.68,1.58L35.86,33c.19,1.2-.38,2-1.58,2H31.68A1.51,1.51,0,0,1,30,33.51ZM23.81,23.43h4.9l-1-7.39L26.5,4.42h-.43L24.82,16Z"/><path class="cls-1" d="M46.61,4.94V33.32A1.54,1.54,0,0,1,44.93,35H42.19a1.54,1.54,0,0,1-1.68-1.68V4.94H35.66A1.54,1.54,0,0,1,34,3.26V1.87A1.5,1.5,0,0,1,35.66.24H51.46a1.5,1.5,0,0,1,1.68,1.63V3.26a1.54,1.54,0,0,1-1.68,1.68Z"/><path class="cls-1" d="M68.4.24a1.5,1.5,0,0,1,1.68,1.63V3.26A1.54,1.54,0,0,1,68.4,4.94H61.15V15.27h5.42a1.5,1.5,0,0,1,1.68,1.63v1.39A1.54,1.54,0,0,1,66.58,20H61.15V30.29H68.4a1.51,1.51,0,0,1,1.68,1.63v1.39A1.54,1.54,0,0,1,68.4,35H56.74a1.54,1.54,0,0,1-1.68-1.68V1.87A1.5,1.5,0,0,1,56.74.24Z"/><path class="cls-1" d="M84.72,1.87A1.5,1.5,0,0,1,86.4.24h2.4a1.47,1.47,0,0,1,1.63,1.63V33.32A1.5,1.5,0,0,1,88.8,35h-3a1.64,1.64,0,0,1-1.68-1.25l-4-12.91L78,12.91l-.43,0,.62,8.16V33.32A1.5,1.5,0,0,1,76.56,35h-2.4a1.54,1.54,0,0,1-1.68-1.68V1.87A1.5,1.5,0,0,1,74.16.24h3a1.6,1.6,0,0,1,1.68,1.25l4,12.91,2.11,7.92.43,0-.62-8.16Z"/><path class="cls-1" d="M105,4.94V33.32A1.54,1.54,0,0,1,103.29,35h-2.74a1.54,1.54,0,0,1-1.68-1.68V4.94H94a1.54,1.54,0,0,1-1.68-1.68V1.87A1.5,1.5,0,0,1,94,.24h15.79a1.5,1.5,0,0,1,1.68,1.63V3.26a1.54,1.54,0,0,1-1.68,1.68Z"/><path class="cls-1" d="M130,22.32v11A1.54,1.54,0,0,1,128.3,35h-2.74a1.54,1.54,0,0,1-1.68-1.68V1.87A1.5,1.5,0,0,1,125.57.24H132c6.24,0,9,2.5,9,7.63v6.77c0,5.18-2.78,7.68-9,7.68Zm2-4.7c2.16,0,2.93-1.2,2.93-3V7.87A2.59,2.59,0,0,0,132,4.94h-2V17.62Z"/><path class="cls-1" d="M157.25.24a1.5,1.5,0,0,1,1.68,1.63V3.26a1.54,1.54,0,0,1-1.68,1.68H150V15.27h5.42a1.5,1.5,0,0,1,1.68,1.63v1.39A1.54,1.54,0,0,1,155.42,20H150V30.29h7.25a1.51,1.51,0,0,1,1.68,1.63v1.39A1.54,1.54,0,0,1,157.25,35H145.58a1.54,1.54,0,0,1-1.68-1.68V1.87A1.5,1.5,0,0,1,145.58.24Z"/><path class="cls-1" d="M173.57,1.87A1.5,1.5,0,0,1,175.25.24h2.4a1.47,1.47,0,0,1,1.63,1.63V33.32A1.5,1.5,0,0,1,177.65,35h-3a1.64,1.64,0,0,1-1.68-1.25l-4-12.91-2.11-7.92-.43,0,.62,8.16V33.32A1.5,1.5,0,0,1,165.41,35H163a1.54,1.54,0,0,1-1.68-1.68V1.87A1.5,1.5,0,0,1,163,.24h3a1.6,1.6,0,0,1,1.68,1.25l4,12.91,2.11,7.92.43,0-.62-8.16Z"/><path class="cls-1" d="M184.8,35a1.54,1.54,0,0,1-1.68-1.68V1.87A1.5,1.5,0,0,1,184.8.24h6.82c6.19,0,9,2.5,9,7.63V27.31c0,5.18-2.78,7.68-9,7.68Zm6.82-4.71c2.11,0,2.93-1.2,2.93-3V7.87a2.61,2.61,0,0,0-2.93-2.93h-2.4V30.29Z"/><path class="cls-1" d="M210.52,33.32A1.54,1.54,0,0,1,208.84,35h-2.74a1.54,1.54,0,0,1-1.68-1.68V1.87A1.5,1.5,0,0,1,206.11.24h2.74a1.5,1.5,0,0,1,1.68,1.63Z"/><path class="cls-1" d="M226.6,1.87A1.5,1.5,0,0,1,228.29.24h2.4a1.47,1.47,0,0,1,1.63,1.63V33.32A1.5,1.5,0,0,1,230.69,35h-3A1.63,1.63,0,0,1,226,33.75l-4-12.91-2.11-7.92-.43,0,.62,8.16V33.32A1.5,1.5,0,0,1,218.44,35H216a1.54,1.54,0,0,1-1.68-1.68V1.87A1.5,1.5,0,0,1,216,.24h3a1.6,1.6,0,0,1,1.68,1.25l4,12.91,2.11,7.92.43,0-.62-8.16Z"/><path class="cls-1" d="M252.09,16.8a1.5,1.5,0,0,1,1.68,1.63v9.36c0,5-2.78,7.44-8.83,7.44s-8.78-2.45-8.78-7.44V7.44c0-5,2.74-7.44,8.78-7.44s8.83,2.45,8.83,7.44v3.17a1.54,1.54,0,0,1-1.68,1.68h-2.74a1.54,1.54,0,0,1-1.68-1.68V7.44a2.44,2.44,0,0,0-2.74-2.74c-2,0-2.69,1.1-2.69,2.74V27.79c0,1.63.72,2.74,2.69,2.74a2.44,2.44,0,0,0,2.74-2.74V21.51h-1.15a1.5,1.5,0,0,1-1.63-1.68V18.43a1.47,1.47,0,0,1,1.63-1.63Z"/></g></g></svg>