<svg xmlns="http://www.w3.org/2000/svg" viewBox="0 0 498.38 35.24"><defs><style>.cls-1{fill:#f58031;}</style></defs><title>Asset 1</title><g id="Layer_2" data-name="Layer 2"><g id="Layer_1-2" data-name="Layer 1"><path class="cls-1" d="M0,1.87A1.5,1.5,0,0,1,1.68.24H4.42A1.5,1.5,0,0,1,6.1,1.87V27.79c0,1.63.72,2.74,2.69,2.74a2.44,2.44,0,0,0,2.74-2.74V1.87A1.5,1.5,0,0,1,13.2.24h2.74a1.5,1.5,0,0,1,1.68,1.63V27.79c0,5-2.78,7.44-8.83,7.44S0,32.79,0,27.79Z"/><path class="cls-1" d="M33.7,1.87A1.5,1.5,0,0,1,35.38.24h2.4a1.47,1.47,0,0,1,1.63,1.63V33.31A1.5,1.5,0,0,1,37.78,35h-3a1.64,1.64,0,0,1-1.68-1.25l-4-12.91L27,12.91l-.43,0,.62,8.16V33.31A1.5,1.5,0,0,1,25.54,35h-2.4a1.54,1.54,0,0,1-1.68-1.68V1.87A1.5,1.5,0,0,1,23.14.24h3a1.6,1.6,0,0,1,1.68,1.25l4,12.91,2.11,7.92.43,0-.62-8.16Z"/><path class="cls-1" d="M49.34,33.31A1.54,1.54,0,0,1,47.66,35H44.93a1.54,1.54,0,0,1-1.68-1.68V1.87A1.5,1.5,0,0,1,44.93.24h2.74a1.5,1.5,0,0,1,1.68,1.63Z"/><path class="cls-1" d="M63.89,4.94V33.31A1.54,1.54,0,0,1,62.21,35H59.47a1.54,1.54,0,0,1-1.68-1.68V4.94H52.94a1.54,1.54,0,0,1-1.68-1.68V1.87A1.5,1.5,0,0,1,52.94.24H68.74a1.5,1.5,0,0,1,1.68,1.63V3.26a1.54,1.54,0,0,1-1.68,1.68Z"/><path class="cls-1" d="M85.68.24a1.5,1.5,0,0,1,1.68,1.63V3.26a1.54,1.54,0,0,1-1.68,1.68H78.43V15.27h5.42a1.5,1.5,0,0,1,1.68,1.63v1.39A1.54,1.54,0,0,1,83.86,20H78.43V30.29h7.25a1.5,1.5,0,0,1,1.68,1.63v1.39A1.54,1.54,0,0,1,85.68,35H74a1.54,1.54,0,0,1-1.68-1.68V1.87A1.5,1.5,0,0,1,74,.24Z"/><path class="cls-1" d="M91.44,35a1.54,1.54,0,0,1-1.68-1.68V1.87A1.5,1.5,0,0,1,91.44.24h6.82c6.19,0,9,2.5,9,7.63V27.31c0,5.18-2.78,7.68-9,7.68Zm6.82-4.7c2.11,0,2.93-1.2,2.93-3V7.87a2.61,2.61,0,0,0-2.93-2.93h-2.4V30.29Z"/><path class="cls-1" d="M129.69,13.3l5.38,4.9c3,2.69,3.7,4.94,3.7,9.6,0,5-2.74,7.44-8.78,7.44s-8.79-2.45-8.79-7.44V24a1.5,1.5,0,0,1,1.63-1.68h2.78A1.5,1.5,0,0,1,127.25,24v3.79a2.74,2.74,0,1,0,5.47,0c0-2.69-.38-4-2.45-5.86L124.84,17c-3-2.69-3.65-4.94-3.65-9.6,0-5,2.74-7.44,8.79-7.44s8.78,2.45,8.78,7.44v3.79a1.47,1.47,0,0,1-1.63,1.63h-2.78a1.47,1.47,0,0,1-1.63-1.63V7.44a2.74,2.74,0,1,0-5.47,0C127.25,10.13,127.63,11.43,129.69,13.3Z"/><path class="cls-1" d="M153,4.94V33.31A1.54,1.54,0,0,1,151.29,35h-2.74a1.54,1.54,0,0,1-1.68-1.68V4.94H142a1.54,1.54,0,0,1-1.68-1.68V1.87A1.5,1.5,0,0,1,142,.24h15.79a1.5,1.5,0,0,1,1.68,1.63V3.26a1.54,1.54,0,0,1-1.68,1.68Z"/><path class="cls-1" d="M171,33.51l-.72-5.38h-6.1l-.67,5.38A1.55,1.55,0,0,1,161.8,35h-2.59a1.55,1.55,0,0,1-1.58-2l4.75-31.15A1.57,1.57,0,0,1,164.11.24h6.24c1,0,1.54.43,1.68,1.58L176.78,33c.19,1.2-.38,2-1.58,2H172.6A1.51,1.51,0,0,1,171,33.51Zm-6.24-10.08h4.9l-1-7.39L167.42,4.42H167L165.74,16Z"/><path class="cls-1" d="M187.53,4.94V33.31A1.54,1.54,0,0,1,185.85,35h-2.74a1.54,1.54,0,0,1-1.68-1.68V4.94h-4.85a1.54,1.54,0,0,1-1.68-1.68V1.87A1.5,1.5,0,0,1,176.59.24h15.79a1.5,1.5,0,0,1,1.68,1.63V3.26a1.54,1.54,0,0,1-1.68,1.68Z"/><path class="cls-1" d="M209.32.24A1.5,1.5,0,0,1,211,1.87V3.26a1.54,1.54,0,0,1-1.68,1.68h-7.25V15.27h5.42a1.5,1.5,0,0,1,1.68,1.63v1.39A1.54,1.54,0,0,1,207.5,20h-5.42V30.29h7.25A1.5,1.5,0,0,1,211,31.92v1.39A1.54,1.54,0,0,1,209.32,35H197.66A1.54,1.54,0,0,1,196,33.31V1.87A1.5,1.5,0,0,1,197.66.24Z"/><path class="cls-1" d="M221.56,13.3l5.38,4.9c3,2.69,3.7,4.94,3.7,9.6,0,5-2.74,7.44-8.79,7.44s-8.78-2.45-8.78-7.44V24a1.5,1.5,0,0,1,1.63-1.68h2.78A1.5,1.5,0,0,1,219.12,24v3.79a2.74,2.74,0,1,0,5.47,0c0-2.69-.38-4-2.45-5.86L216.72,17c-3-2.69-3.65-4.94-3.65-9.6,0-5,2.74-7.44,8.78-7.44s8.79,2.45,8.79,7.44v3.79A1.47,1.47,0,0,1,229,12.87h-2.78a1.47,1.47,0,0,1-1.63-1.63V7.44a2.74,2.74,0,1,0-5.47,0C219.12,10.13,219.5,11.43,221.56,13.3Z"/><path class="cls-1" d="M250.7,22.32v11A1.54,1.54,0,0,1,249,35h-2.74a1.54,1.54,0,0,1-1.68-1.68V1.87A1.5,1.5,0,0,1,246.28.24h6.43c6.24,0,9,2.5,9,7.63v6.77c0,5.18-2.78,7.68-9,7.68Zm2-4.7c2.16,0,2.93-1.2,2.93-3V7.87a2.59,2.59,0,0,0-2.93-2.93h-2V17.62Z"/><path class="cls-1" d="M274.65,33.51l-.72-5.38h-6.1l-.67,5.38A1.55,1.55,0,0,1,265.48,35h-2.59a1.55,1.55,0,0,1-1.58-2l4.75-31.15A1.57,1.57,0,0,1,267.79.24H274c1,0,1.54.43,1.68,1.58L280.46,33c.19,1.2-.38,2-1.58,2h-2.59A1.51,1.51,0,0,1,274.65,33.51Zm-6.24-10.08h4.9l-1-7.39L271.1,4.42h-.43L269.42,16Z"/><path class="cls-1" d="M291.21,4.94V33.31A1.54,1.54,0,0,1,289.53,35h-2.74a1.54,1.54,0,0,1-1.68-1.68V4.94h-4.85a1.54,1.54,0,0,1-1.68-1.68V1.87A1.5,1.5,0,0,1,280.27.24h15.79a1.5,1.5,0,0,1,1.68,1.63V3.26a1.54,1.54,0,0,1-1.68,1.68Z"/><path class="cls-1" d="M313,.24a1.5,1.5,0,0,1,1.68,1.63V3.26A1.54,1.54,0,0,1,313,4.94h-7.25V15.27h5.42a1.5,1.5,0,0,1,1.68,1.63v1.39A1.54,1.54,0,0,1,311.18,20h-5.42V30.29H313a1.5,1.5,0,0,1,1.68,1.63v1.39A1.54,1.54,0,0,1,313,35H301.34a1.54,1.54,0,0,1-1.68-1.68V1.87A1.5,1.5,0,0,1,301.34.24Z"/><path class="cls-1" d="M329.32,1.87A1.5,1.5,0,0,1,331,.24h2.4A1.47,1.47,0,0,1,335,1.87V33.31A1.5,1.5,0,0,1,333.4,35h-3a1.64,1.64,0,0,1-1.68-1.25l-4-12.91-2.11-7.92-.43,0,.62,8.16V33.31A1.5,1.5,0,0,1,321.16,35h-2.4a1.54,1.54,0,0,1-1.68-1.68V1.87A1.5,1.5,0,0,1,318.76.24h3a1.6,1.6,0,0,1,1.68,1.25l4,12.91,2.11,7.92.43,0-.62-8.16Z"/><path class="cls-1" d="M349.58,4.94V33.31A1.54,1.54,0,0,1,347.9,35h-2.74a1.54,1.54,0,0,1-1.68-1.68V4.94h-4.85A1.54,1.54,0,0,1,337,3.26V1.87A1.5,1.5,0,0,1,338.63.24h15.79a1.5,1.5,0,0,1,1.68,1.63V3.26a1.54,1.54,0,0,1-1.68,1.68Z"/><path class="cls-1" d="M374.58,22.32v11A1.54,1.54,0,0,1,372.9,35h-2.74a1.54,1.54,0,0,1-1.68-1.68V1.87A1.5,1.5,0,0,1,370.17.24h6.43c6.24,0,9,2.5,9,7.63v6.77c0,5.18-2.78,7.68-9,7.68Zm2-4.7c2.16,0,2.93-1.2,2.93-3V7.87a2.59,2.59,0,0,0-2.93-2.93h-2V17.62Z"/><path class="cls-1" d="M401.85.24a1.5,1.5,0,0,1,1.68,1.63V3.26a1.54,1.54,0,0,1-1.68,1.68H394.6V15.27H400a1.5,1.5,0,0,1,1.68,1.63v1.39A1.54,1.54,0,0,1,400,20H394.6V30.29h7.25a1.5,1.5,0,0,1,1.68,1.63v1.39A1.54,1.54,0,0,1,401.85,35H390.18a1.54,1.54,0,0,1-1.68-1.68V1.87A1.5,1.5,0,0,1,390.18.24Z"/><path class="cls-1" d="M418.17,1.87A1.5,1.5,0,0,1,419.85.24h2.4a1.47,1.47,0,0,1,1.63,1.63V33.31A1.5,1.5,0,0,1,422.25,35h-3a1.64,1.64,0,0,1-1.68-1.25l-4-12.91-2.11-7.92L411,13l.62,8.16V33.31A1.5,1.5,0,0,1,410,35h-2.4a1.54,1.54,0,0,1-1.68-1.68V1.87A1.5,1.5,0,0,1,407.61.24h3a1.6,1.6,0,0,1,1.68,1.25l4,12.91,2.11,7.92.43,0-.62-8.16Z"/><path class="cls-1" d="M429.4,35a1.54,1.54,0,0,1-1.68-1.68V1.87A1.5,1.5,0,0,1,429.4.24h6.82c6.19,0,9,2.5,9,7.63V27.31c0,5.18-2.78,7.68-9,7.68Zm6.82-4.7c2.11,0,2.93-1.2,2.93-3V7.87a2.61,2.61,0,0,0-2.93-2.93h-2.4V30.29Z"/><path class="cls-1" d="M455.13,33.31A1.54,1.54,0,0,1,453.45,35h-2.74A1.54,1.54,0,0,1,449,33.31V1.87A1.5,1.5,0,0,1,450.71.24h2.74a1.5,1.5,0,0,1,1.68,1.63Z"/><path class="cls-1" d="M471.21,1.87A1.5,1.5,0,0,1,472.89.24h2.4a1.47,1.47,0,0,1,1.63,1.63V33.31A1.5,1.5,0,0,1,475.29,35h-3a1.64,1.64,0,0,1-1.68-1.25l-4-12.91-2.11-7.92-.43,0,.62,8.16V33.31A1.5,1.5,0,0,1,463,35h-2.4A1.54,1.54,0,0,1,459,33.31V1.87A1.5,1.5,0,0,1,460.65.24h3a1.6,1.6,0,0,1,1.68,1.25l4,12.91,2.11,7.92.43,0-.62-8.16Z"/><path class="cls-1" d="M496.69,16.8a1.5,1.5,0,0,1,1.68,1.63v9.36c0,5-2.78,7.44-8.83,7.44s-8.79-2.45-8.79-7.44V7.44c0-5,2.74-7.44,8.79-7.44s8.83,2.45,8.83,7.44v3.17a1.54,1.54,0,0,1-1.68,1.68H494a1.54,1.54,0,0,1-1.68-1.68V7.44a2.44,2.44,0,0,0-2.74-2.74c-2,0-2.69,1.1-2.69,2.74V27.79c0,1.63.72,2.74,2.69,2.74a2.44,2.44,0,0,0,2.74-2.74V21.51h-1.15a1.5,1.5,0,0,1-1.63-1.68V18.43a1.47,1.47,0,0,1,1.63-1.63Z"/></g></g></svg>